<?xml version="1.0" encoding="UTF-8"?>
<svg width="42px" height="42px" viewBox="0 0 42 42" version="1.1" xmlns="http://www.w3.org/2000/svg" xmlns:xlink="http://www.w3.org/1999/xlink">
    <!-- Generator: Sketch 52.5 (67469) - http://www.bohemiancoding.com/sketch -->
    <title>LOGO Copy 2</title>
    <desc>Created with Sketch.</desc>
    <defs>
        <polygon id="path-1" points="19.2698182 38.5396364 38.5396364 38.5396364 38.5396364 0.000963490909 0 0.000963490909 0 38.5396364 19.2698182 38.5396364 0 38.5396364 0 0 38.5396364 0 38.5396364 38.5396364 19.2698182 38.5396364"></polygon>
    </defs>
    <g id="Page-3" stroke="none" stroke-width="1" fill="none" fill-rule="evenodd">
        <g id="LOGO-Copy-2">
            <circle id="Oval" fill="#EC4614" cx="21" cy="21" r="21"></circle>
            <g id="Team-Reciprocity-Logo---Primary-BG" transform="translate(1.680000, 1.680000)">
                <g id="Group-3">
                    <mask id="mask-2" fill="white">
                        <use xlink:href="#path-1"></use>
                    </mask>
                    <g id="Clip-2"></g>
                    <path d="M38.5396364,19.2698182 C38.5396364,29.9122979 29.9122979,38.5396364 19.2698182,38.5396364 C8.62738665,38.5396364 0,29.9122979 0,19.2698182 C0,8.62738665 8.62738665,0 19.2698182,0 C29.9122979,0 38.5396364,8.62738665 38.5396364,19.2698182" id="Fill-1" fill="#DE4A2A" mask="url(#mask-2)"></path>
                </g>
                <path d="M34.921728,15.0487645 L31.6877708,15.2294191 C32.1078528,16.522183 32.321266,17.8691433 32.321266,19.2481396 C32.321266,21.0062697 31.9758545,22.7130938 31.2951482,24.3206784 C30.6375657,25.8726214 29.6971985,27.2660701 28.4995793,28.4620032 C27.3017193,29.6579363 25.9063436,30.5973399 24.3522327,31.2537181 C22.7424803,31.9337018 21.0334883,32.2783907 19.2727087,32.2783907 C17.511929,32.2783907 15.8031779,31.9337018 14.1929437,31.2537181 C12.7204887,30.6317847 11.3908713,29.7554897 10.2366092,28.6479569 L9.74932364,29.2930141 L17.0335558,36.9766132 L16.9384111,35.2811101 C17.0205487,35.2758109 17.1026863,35.2709935 17.184583,35.2647308 C27.580409,34.4780404 35.506567,25.4901155 34.921728,15.0487645" id="Fill-4" fill="#FFFFFE"></path>
                <path d="M21.5063215,1.56302313 L21.6012253,3.25852625 C21.5190877,3.26382545 21.4369501,3.26864291 21.3552943,3.27466473 C10.9589865,4.06159593 3.03306938,13.0495209 3.61790836,23.490631 L6.87137629,23.3089889 C6.44190022,22.0034828 6.22415127,20.6420701 6.22415127,19.2481396 C6.22415127,17.4897687 6.56932189,15.7834263 7.25050996,14.1756009 C7.90761076,12.6236579 8.84821876,11.23045 10.045838,10.0342761 C11.243698,8.83810211 12.6388329,7.89893935 14.1929437,7.24256116 C15.8031779,6.56257745 17.511929,6.21788858 19.2727087,6.21788858 C21.0334883,6.21788858 22.7424803,6.56257745 24.3522327,7.24256116 C25.8314321,7.86714415 27.1663488,8.7489792 28.3244649,9.86373818 L28.7903127,9.24662225 L21.5063215,1.56302313" id="Fill-5" fill="#FFFFFE"></path>
                <path d="M18.929465,17.1602548 C18.1280815,17.1602548 17.5769647,17.623694 17.4013684,18.4759017 L20.331826,18.4759017 C20.1942877,17.4984401 19.5928285,17.1602548 18.929465,17.1602548 Z M17.3515078,19.5778944 C17.5263814,20.5676404 18.1406068,21.1315235 19.1293894,21.1315235 C20.1562298,21.1315235 20.5695674,20.5303052 20.757689,20.2667904 L21.2902586,19.5778944 L17.3515078,19.5778944 Z M17.3515078,19.5778944 C17.5263814,20.5676404 18.1406068,21.1315235 19.1293894,21.1315235 C20.1562298,21.1315235 20.5695674,20.5303052 20.757689,20.2667904 L21.2902586,19.5778944 L17.3515078,19.5778944 Z M18.929465,17.1602548 C18.1280815,17.1602548 17.5769647,17.623694 17.4013684,18.4759017 L20.331826,18.4759017 C20.1942877,17.4984401 19.5928285,17.1602548 18.929465,17.1602548 Z M18.929465,17.1602548 C18.1280815,17.1602548 17.5769647,17.623694 17.4013684,18.4759017 L20.331826,18.4759017 C20.1942877,17.4984401 19.5928285,17.1602548 18.929465,17.1602548 Z M19.1293894,21.1315235 C20.1562298,21.1315235 20.5695674,20.5303052 20.757689,20.2667904 L21.2902586,19.5778944 L17.3515078,19.5778944 C17.5263814,20.5676404 18.1406068,21.1315235 19.1293894,21.1315235 Z M25.5787567,22.6054237 C24.8744448,22.6054237 24.2339642,22.3821347 23.7180148,21.9892713 L23.5758999,22.176887 L23.6190402,21.0103645 L24.7306438,20.6543546 L24.6049082,20.8203159 C24.862642,21.0611887 25.1989004,21.2018583 25.6038074,21.2018583 C26.058816,21.2018583 26.3765271,21.03397 26.6075241,20.8061044 L27.7615453,21.673728 C27.1620131,22.3060189 26.3367831,22.6054237 25.5787567,22.6054237 Z M18.9793257,22.597234 C17.3389824,22.597234 15.7610252,21.5576273 15.7610252,19.2519936 C15.7610252,18.5081786 15.9308404,17.8792599 16.2271139,17.3760768 L14.8213807,17.3760768 C14.4887354,17.3895657 13.9788079,17.4261783 13.5529449,17.748466 C12.9146321,18.2369559 12.901625,18.8759913 12.901625,19.9158388 L12.901625,22.4091124 L11.4494033,22.4091124 L11.4494033,15.9455337 L12.901625,15.9455337 L12.901625,16.4581108 C13.073849,16.1599104 13.4245597,15.9578182 14.5662964,15.9578182 L18.8791226,15.9578182 C20.532473,15.9578182 21.2211281,16.9470825 21.346382,17.1354449 C21.675655,17.6017745 21.8396893,18.217927 21.9184547,18.7654307 L22.9951558,17.3727046 C23.166898,17.1525469 23.0081629,17.3556026 23.3451439,16.9239587 C23.8562758,16.2699892 24.6453748,15.8735127 25.6124788,15.8735127 C26.5020218,15.8735127 27.1384076,16.2849233 27.5493364,16.6777868 L27.6969914,16.4831616 L27.6538752,17.6499491 L26.5424884,18.0057181 L26.6906252,17.8103703 C26.6906252,17.8103703 26.6366697,17.756174 26.5511599,17.674759 C26.4025414,17.5336076 26.0443636,17.2977932 25.6124788,17.2977932 C24.9683852,17.2977932 24.6111709,17.6456134 24.4478592,17.8585449 C24.124608,18.2800721 22.0350371,21.0062697 22.0350371,21.0062697 C21.2584875,22.0458764 20.2564329,22.597234 18.9793257,22.597234 Z M19.2727087,8.13740335 C13.1278045,8.13740335 8.14631564,13.1119069 8.14631564,19.2481396 C8.14631564,25.3843724 13.1278045,30.3588759 19.2727087,30.3588759 C25.4176128,30.3588759 30.3991017,25.3843724 30.3991017,19.2481396 C30.3991017,13.1119069 25.4176128,8.13740335 19.2727087,8.13740335 Z M18.929465,17.1602548 C18.1280815,17.1602548 17.5769647,17.623694 17.4013684,18.4759017 L20.331826,18.4759017 C20.1942877,17.4984401 19.5928285,17.1602548 18.929465,17.1602548 Z M17.3515078,19.5778944 C17.5263814,20.5676404 18.1406068,21.1315235 19.1293894,21.1315235 C20.1562298,21.1315235 20.5695674,20.5303052 20.757689,20.2667904 L21.2902586,19.5778944 L17.3515078,19.5778944 Z M17.3515078,19.5778944 C17.5263814,20.5676404 18.1406068,21.1315235 19.1293894,21.1315235 C20.1562298,21.1315235 20.5695674,20.5303052 20.757689,20.2667904 L21.2902586,19.5778944 L17.3515078,19.5778944 Z M18.929465,17.1602548 C18.1280815,17.1602548 17.5769647,17.623694 17.4013684,18.4759017 L20.331826,18.4759017 C20.1942877,17.4984401 19.5928285,17.1602548 18.929465,17.1602548 L18.929465,17.1602548 Z" id="Fill-6" fill="#FFFFFE"></path>
            </g>
        </g>
    </g>
</svg>